<svg width="13" height="17" viewBox="0 0 13 17" fill="none" xmlns="http://www.w3.org/2000/svg">
<path d="M7.60553 8.73307C7.34519 8.73307 7.6576 8.87192 7.98736 8.92398C8.07837 8.85379 8.16529 8.77846 8.2477 8.69835C8.03968 8.76215 7.81921 8.77406 7.60553 8.73307Z" fill="#C9D0E3"/>
<path d="M9.01137 8.38596C9.16409 8.17964 9.27063 7.94287 9.32376 7.69173C9.27974 7.85803 9.20943 8.01622 9.11549 8.16033C8.62953 8.47274 9.06342 7.98677 9.11549 7.79586C8.57746 8.47274 9.02872 8.21242 9.01137 8.38596Z" fill="#C9D0E3"/>
<path d="M9.51462 7.04953C9.54933 6.58093 9.42784 6.73713 9.37574 6.91069C9.42781 6.9454 9.47988 7.24045 9.51462 7.04953Z" fill="#C9D0E3"/>
<path d="M6.63356 0.679925C6.77244 0.697282 6.9286 0.731995 6.91126 0.749346C7.05013 0.714633 7.08482 0.679925 6.63356 0.679925Z" fill="#C9D0E3"/>
<path d="M11.2153 7.24052C11.2068 7.58397 11.1239 7.92149 10.9723 8.2298L10.7467 8.33394C10.5558 8.69841 10.7641 8.55956 10.6252 8.83726C10.3042 9.15829 9.94922 9.44345 9.56652 9.6877C9.42765 9.6877 9.6533 9.5315 9.68802 9.46207C9.30619 9.72241 9.37561 9.86126 8.78551 10.0175L8.76815 9.98275C7.32761 10.6596 5.31433 9.32323 5.33169 7.4835C5.31433 7.60499 5.27962 7.57028 5.26226 7.62235C5.22252 7.1537 5.32561 6.684 5.55796 6.27507C5.7903 5.86614 6.14102 5.53714 6.56395 5.33137C6.95399 5.13541 7.39369 5.06045 7.82662 5.11611C8.25956 5.17177 8.66599 5.35552 8.99377 5.64378C8.78811 5.37089 8.52004 5.15127 8.21202 5.0033C7.90401 4.85534 7.56502 4.78334 7.22346 4.79335C6.87253 4.79892 6.5292 4.89641 6.22771 5.07608C5.92622 5.25576 5.67711 5.51135 5.50523 5.81735C5.10604 6.06033 5.07131 6.77192 4.89777 6.89341C4.67215 8.59429 5.33169 9.32323 6.4598 10.1737C6.63336 10.2952 6.51187 10.3125 6.52923 10.3993C6.14918 10.2176 5.812 9.95727 5.53994 9.63564C5.6805 9.85916 5.85633 10.0584 6.06062 10.2257C5.7135 10.1042 5.24489 9.37528 5.10604 9.34057C5.7135 10.434 7.57058 11.2497 8.54251 10.8332C8.02695 10.8759 7.50802 10.8169 7.01519 10.6596C6.80693 10.5555 6.51187 10.3299 6.56394 10.2778C7.19187 10.5449 7.88068 10.6359 8.55644 10.5411C9.23219 10.4463 9.86938 10.1693 10.3996 9.73976C10.6946 9.51413 11.007 9.1323 11.0938 9.11495C10.955 9.32322 11.1112 9.21908 11.007 9.39264C11.3021 8.92404 10.8856 9.20173 11.3021 8.57691L11.4583 8.80254C11.4062 8.42071 11.9443 7.93475 11.8922 7.32729C12.0137 7.13638 12.0311 7.53556 11.8922 7.96946C12.0831 7.48349 11.9443 7.41407 11.979 7.01488C12.0386 7.15077 12.0908 7.28983 12.1352 7.43142C12.0909 7.06919 12.1511 6.70184 12.3087 6.37271C12.2567 6.338 12.1178 6.58098 12.1005 6.0256C12.1005 5.78262 12.1699 5.90411 12.1873 5.83468C12.0507 5.67916 11.9658 5.48511 11.9443 5.27929C11.9963 5.19252 12.0831 5.48756 12.1699 5.50492C12.1118 5.27019 12.0654 5.03269 12.031 4.79333C11.8228 4.34207 11.9616 4.8454 11.788 4.60241C11.5624 3.89082 11.979 4.42885 12.0137 4.11645C12.2992 4.61706 12.5153 5.15425 12.6558 5.71319C12.5887 5.32223 12.484 4.93863 12.3434 4.5677C12.4476 4.61977 12.1699 3.75197 12.4823 4.32472C12.0682 3.10533 11.2141 2.08422 10.0872 1.46102C10.2087 1.56515 10.3649 1.704 10.3128 1.73871C9.82683 1.44367 9.91361 1.4263 9.84419 1.3048C9.44501 1.14859 9.41028 1.32215 9.14996 1.3048C8.63198 1.07622 8.09839 0.884824 7.55322 0.732067L7.58793 0.888271C7.08462 0.714711 6.99785 0.957692 6.45981 0.888271C6.42509 0.870914 6.63352 0.801587 6.80708 0.766874C6.32112 0.836295 6.33831 0.680003 5.8697 0.784137L6.23417 0.575869C5.85234 0.610582 5.29696 0.81885 5.47052 0.627938C4.82835 0.922979 3.68286 1.32217 3.0407 1.91227L3.02334 1.77342C2.7283 2.12054 1.73901 2.83213 1.66958 3.28339L1.5828 3.30074C1.4398 3.56252 1.31792 3.8353 1.21833 4.11647C1.01006 4.46359 0.92329 4.25532 0.957992 4.30739C0.644921 4.9548 0.389385 5.62849 0.194336 6.32067C0.315827 6.49423 0.194335 7.39674 0.246404 8.12568C0.0554926 11.6836 2.74565 15.1548 5.69615 15.9532C6.22303 16.0874 6.76738 16.1401 7.31023 16.1094C6.66806 15.9185 6.58127 16.0052 5.95647 15.797C5.50521 15.5887 5.40108 15.3457 5.08868 15.068L5.21017 15.2936C4.58536 15.068 4.84569 15.0159 4.32502 14.8597L4.46389 14.6862C4.19924 14.5944 3.97712 14.4092 3.83908 14.1655L3.61346 14.1828C3.35312 13.8531 3.19692 13.6101 3.21427 13.4365L3.14485 13.558C3.05807 13.4192 2.15556 12.3084 2.62417 12.5688C2.48533 12.477 2.3719 12.3516 2.29441 12.2043L2.39854 12.1002C2.20309 11.8767 2.06596 11.6084 1.99936 11.3191C2.07134 11.4237 2.17464 11.5027 2.2944 11.5448C1.72165 10.1216 1.68694 11.4753 1.25304 10.1042H1.33982C1.27523 9.99799 1.21726 9.88785 1.16626 9.77446L1.20097 9.37528C0.784433 8.90667 1.07948 7.36199 1.1489 6.51156C1.30089 6.06714 1.49257 5.63731 1.72162 5.22727L1.56546 5.15782C1.8258 4.68921 3.09277 3.28338 3.68287 3.35281C3.96057 3.00569 3.63081 3.35281 3.57874 3.26603C4.20355 2.62386 4.39447 2.81478 4.81101 2.69329C5.26226 2.43295 4.42918 2.79742 4.63745 2.58915C5.41846 2.39823 5.19284 2.1379 6.21683 2.03376C6.32097 2.10318 5.97385 2.12054 5.86972 2.20732C6.84756 1.90534 7.9016 1.96698 8.83757 2.38088C9.46402 2.71158 10.0011 3.18895 10.4031 3.77225C10.8051 4.35554 11.0599 5.02743 11.1459 5.73056L11.198 5.74792C11.2402 6.34004 11.2052 6.93514 11.0938 7.51822L11.2153 7.24052Z" fill="#C9D0E3"/>
<path d="M4.77638 9.09768L4.74166 9.27124C4.89137 9.5089 5.06591 9.72998 5.26234 9.93076C5.10613 9.63572 5.002 9.51422 4.77638 9.09768Z" fill="#C9D0E3"/>
<path d="M5.1929 9.08033C5.11341 8.97098 5.04371 8.85482 4.98464 8.73322C5.04881 8.93664 5.14237 9.12959 5.26233 9.30596L5.1929 9.08033Z" fill="#C9D0E3"/>
<path d="M12.309 7.53564L12.2743 7.63978C12.2034 8.14135 12.051 8.62795 11.8231 9.08031C12.0756 8.59841 12.2402 8.07533 12.309 7.53564Z" fill="#C9D0E3"/>
<path d="M6.68555 0.541106C6.89142 0.499907 7.10047 0.476677 7.31036 0.47168C7.06738 0.489036 6.82439 0.506393 6.5814 0.541101L6.68555 0.541106Z" fill="#C9D0E3"/>
<path d="M0.524287 3.82143C0.559 4.20326 0.246593 4.34211 0.593714 4.09912C0.784626 3.66521 0.524287 3.97763 0.524287 3.82143Z" fill="#C9D0E3"/>
</svg>
