<svg width="211" height="158" viewBox="0 0 211 158" fill="none" xmlns="http://www.w3.org/2000/svg">
<g clip-path="url(#clip0)">
<path opacity="0.15" d="M68.9245 41.3599L122.724 74.0301L156.964 51.3001L101.264 19.8999L68.9245 41.3599Z" fill="url(#paint0_linear)"/>
<path opacity="0.3" d="M75.4045 41.1399L122.834 70.0401L150.404 51.74L101.404 23.8599L75.4045 41.1399Z" fill="url(#paint1_linear)"/>
<path opacity="0.4" d="M81.9845 40.96L122.984 66.0401L143.834 52.19L101.644 27.8799L81.9845 40.96Z" fill="url(#paint2_linear)"/>
<path opacity="0.15" d="M0.724487 56.3999L41.8545 81.1099L85.4745 53.17L41.8545 30.0201L0.724487 56.3999Z" fill="url(#paint3_linear)"/>
<path opacity="0.3" d="M8.91449 56.24L42.0745 76.1599L77.2345 53.6399L42.1045 34.97L8.91449 56.24Z" fill="url(#paint4_linear)"/>
<path opacity="0.4" d="M17.2745 56.0701L42.3445 71.1299L68.9245 54.1299L42.3445 40.0601L17.2745 56.0701Z" fill="url(#paint5_linear)"/>
<path opacity="0.15" d="M125.724 85.23L166.854 109.93L210.464 81.99L166.854 58.8499L125.724 85.23Z" fill="url(#paint6_linear)"/>
<path opacity="0.3" d="M133.865 85.0601L167.024 104.98L202.185 82.47L167.044 63.8001L133.865 85.0601Z" fill="url(#paint7_linear)"/>
<path opacity="0.4" d="M142.214 84.8999L167.294 99.95L193.875 82.95L167.294 68.8699L142.214 84.8999Z" fill="url(#paint8_linear)"/>
<g opacity="0.9">
<path opacity="0.9" d="M119.055 43.5901L144.134 29.21L144.505 50.0901L119.944 64.73L119.055 43.5901Z" fill="url(#paint9_linear)"/>
<path opacity="0.9" d="M119.055 43.5901L90.3045 22.5901V39.24L120.074 64.8899L119.055 43.5901Z" fill="url(#paint10_linear)"/>
<path opacity="0.9" d="M119.055 43.5901L90.3045 22.5901L100.854 17.0401L144.134 29.25L119.055 43.5901Z" fill="#19878B"/>
</g>
<g opacity="0.9">
<path opacity="0.9" d="M52.4245 27.2701L33.5545 27.3401L24.1645 36.93L33.6345 46.3201L52.5045 46.25L61.9045 36.7701L52.4245 27.2701Z" fill="#19878B"/>
<path opacity="0.9" d="M61.9045 36.7701L61.9645 53.19L52.5645 62.7801L52.4945 46.25L61.9045 36.7701Z" fill="url(#paint11_linear)"/>
<path opacity="0.9" d="M52.5045 46.25L33.6345 46.3201L33.6945 62.8599L52.5645 62.7801L52.5045 46.25Z" fill="url(#paint12_linear)"/>
<path opacity="0.9" d="M24.1645 36.93L24.2345 53.3599L33.6945 62.8599L33.6245 46.3201L24.1645 36.93Z" fill="url(#paint13_linear)"/>
</g>
<g opacity="0.9">
<path opacity="0.9" d="M183.185 69.6799C180.475 60.0599 173.545 54.2301 167.855 55.8301L158.324 58.1799C152.624 59.7799 150.205 68.88 152.915 78.5C155.625 88.12 162.415 94.64 168.115 93.04L178.454 89.79C183.654 87.67 185.775 78.8699 183.185 69.6799Z" fill="url(#paint14_linear)"/>
<path opacity="0.9" d="M168.114 93.0601C173.804 91.4701 176.224 82.36 173.524 72.73C170.824 63.1 164.014 56.59 158.324 58.18C152.634 59.77 150.214 68.88 152.914 78.51C155.614 88.14 162.424 94.6601 168.114 93.0601Z" fill="url(#paint15_linear)"/>
</g>
</g>
<g clip-path="url(#clip1)">
<path opacity="0.15" d="M7.72447 104.78L83.5645 150.33L164.014 98.8399L83.5645 56.17L7.72447 104.78Z" fill="url(#paint16_linear)"/>
<path opacity="0.3" d="M22.8945 104.49L84.0245 141.2L148.834 99.7201L84.0245 65.2899L22.8945 104.49Z" fill="url(#paint17_linear)"/>
<path opacity="0.4" d="M38.2345 104.18L84.4545 131.91L133.514 100.51L84.4545 74.5101L38.2345 104.18Z" fill="url(#paint18_linear)"/>
<g opacity="0.9">
<path opacity="0.7" d="M85.9945 119.16L136.124 90.5499L136.244 104.31L85.8945 133.65L85.9945 119.16Z" fill="url(#paint19_linear)"/>
<path opacity="0.73" d="M85.9945 119.16L35.8945 89.8199V103.09L85.8945 133.65L85.9945 119.16Z" fill="url(#paint20_linear)"/>
<path opacity="0.73" d="M85.9945 119.16L35.8945 89.8199L83.8445 59.7501L136.154 90.5499L85.9945 119.16Z" fill="url(#paint21_linear)"/>
<path opacity="0.1" d="M85.9945 113.91L44.5845 89.68L84.1745 64.91L127.404 90.3499L85.9945 113.91Z" stroke="url(#paint22_linear)" stroke-width="2"/>
<path opacity="0.3" d="M86.0045 108.24L54.1145 89.5699L84.5745 70.43L117.894 90.0499L86.0045 108.24Z" stroke="url(#paint23_linear)" stroke-opacity="0.6" stroke-width="2"/>
</g>
<path opacity="0.5" d="M86.0345 107.17L55.8945 89.5201L84.4745 71.5201L115.894 90.0301L86.0345 107.17Z" fill="#3F8C8F"/>
<path opacity="0.5" d="M84.4645 71.5001L85.9945 107.11L115.894 90.0301L84.4645 71.5001Z" fill="#3F8C8F"/>
</g>
<defs>
<linearGradient id="paint0_linear" x1="113.394" y1="93.1101" x2="112.554" y2="9.00991" gradientUnits="userSpaceOnUse">
<stop stop-color="#E6F6E5"/>
<stop offset="0.19" stop-color="#E2F5E4"/>
<stop offset="0.39" stop-color="#D6F1E1"/>
<stop offset="0.59" stop-color="#C1EBDB"/>
<stop offset="0.79" stop-color="#A5E3D3"/>
<stop offset="0.94" stop-color="#89DBCC"/>
</linearGradient>
<linearGradient id="paint1_linear" x1="25401.4" y1="-463941" x2="25401.4" y2="-617127" gradientUnits="userSpaceOnUse">
<stop stop-color="#E6F6E5"/>
<stop offset="0.19" stop-color="#E2F5E4"/>
<stop offset="0.39" stop-color="#D6F1E1"/>
<stop offset="0.59" stop-color="#C1EBDB"/>
<stop offset="0.79" stop-color="#A5E3D3"/>
<stop offset="0.94" stop-color="#89DBCC"/>
</linearGradient>
<linearGradient id="paint2_linear" x1="20968.1" y1="-339751" x2="20968.1" y2="-426220" gradientUnits="userSpaceOnUse">
<stop stop-color="#E6F6E5"/>
<stop offset="0.19" stop-color="#E2F5E4"/>
<stop offset="0.39" stop-color="#D6F1E1"/>
<stop offset="0.59" stop-color="#C1EBDB"/>
<stop offset="0.79" stop-color="#A5E3D3"/>
<stop offset="0.94" stop-color="#89DBCC"/>
</linearGradient>
<linearGradient id="paint3_linear" x1="22703.6" y1="-616692" x2="22703.6" y2="-777955" gradientUnits="userSpaceOnUse">
<stop stop-color="#E6F6E5"/>
<stop offset="0.19" stop-color="#E2F5E4"/>
<stop offset="0.39" stop-color="#D6F1E1"/>
<stop offset="0.59" stop-color="#C1EBDB"/>
<stop offset="0.79" stop-color="#A5E3D3"/>
<stop offset="0.94" stop-color="#89DBCC"/>
</linearGradient>
<linearGradient id="paint4_linear" x1="18308.4" y1="-427709" x2="18308.4" y2="-512200" gradientUnits="userSpaceOnUse">
<stop stop-color="#E6F6E5"/>
<stop offset="0.19" stop-color="#E2F5E4"/>
<stop offset="0.39" stop-color="#D6F1E1"/>
<stop offset="0.59" stop-color="#C1EBDB"/>
<stop offset="0.79" stop-color="#A5E3D3"/>
<stop offset="0.94" stop-color="#89DBCC"/>
</linearGradient>
<linearGradient id="paint5_linear" x1="13853.3" y1="-265081" x2="13853.3" y2="-301480" gradientUnits="userSpaceOnUse">
<stop stop-color="#E6F6E5"/>
<stop offset="0.19" stop-color="#E2F5E4"/>
<stop offset="0.39" stop-color="#D6F1E1"/>
<stop offset="0.59" stop-color="#C1EBDB"/>
<stop offset="0.79" stop-color="#A5E3D3"/>
<stop offset="0.94" stop-color="#89DBCC"/>
</linearGradient>
<linearGradient id="paint6_linear" x1="33413.3" y1="-618018" x2="33413.3" y2="-779250" gradientUnits="userSpaceOnUse">
<stop stop-color="#E6F6E5"/>
<stop offset="0.19" stop-color="#E2F5E4"/>
<stop offset="0.39" stop-color="#D6F1E1"/>
<stop offset="0.59" stop-color="#C1EBDB"/>
<stop offset="0.79" stop-color="#A5E3D3"/>
<stop offset="0.94" stop-color="#89DBCC"/>
</linearGradient>
<linearGradient id="paint7_linear" x1="26970" y1="-428763" x2="26970" y2="-513233" gradientUnits="userSpaceOnUse">
<stop stop-color="#E6F6E5"/>
<stop offset="0.19" stop-color="#E2F5E4"/>
<stop offset="0.39" stop-color="#D6F1E1"/>
<stop offset="0.59" stop-color="#C1EBDB"/>
<stop offset="0.79" stop-color="#A5E3D3"/>
<stop offset="0.94" stop-color="#89DBCC"/>
</linearGradient>
<linearGradient id="paint8_linear" x1="20435.3" y1="-266035" x2="20435.3" y2="-302447" gradientUnits="userSpaceOnUse">
<stop stop-color="#E6F6E5"/>
<stop offset="0.19" stop-color="#E2F5E4"/>
<stop offset="0.39" stop-color="#D6F1E1"/>
<stop offset="0.59" stop-color="#C1EBDB"/>
<stop offset="0.79" stop-color="#A5E3D3"/>
<stop offset="0.94" stop-color="#89DBCC"/>
</linearGradient>
<linearGradient id="paint9_linear" x1="131.945" y1="63.65" x2="131.635" y2="32.83" gradientUnits="userSpaceOnUse">
<stop stop-color="#18757D"/>
<stop offset="0.27" stop-color="#187678"/>
<stop offset="0.54" stop-color="#157279"/>
<stop offset="0.81" stop-color="#0B646C"/>
<stop offset="0.94" stop-color="#07596E"/>
</linearGradient>
<linearGradient id="paint10_linear" x1="105.314" y1="64.4799" x2="104.904" y2="23.3801" gradientUnits="userSpaceOnUse">
<stop stop-color="#218B89"/>
<stop offset="0.41" stop-color="#20898B"/>
<stop offset="0.83" stop-color="#198589"/>
<stop offset="0.94" stop-color="#157476"/>
<stop offset="1" stop-color="#1A7E7C"/>
</linearGradient>
<linearGradient id="paint11_linear" x1="-19949" y1="-51106.7" x2="-19184.2" y2="-51106.7" gradientUnits="userSpaceOnUse">
<stop stop-color="#18757D"/>
<stop offset="0.27" stop-color="#187678"/>
<stop offset="0.54" stop-color="#157279"/>
<stop offset="0.81" stop-color="#0B646C"/>
<stop offset="0.94" stop-color="#07596E"/>
</linearGradient>
<linearGradient id="paint12_linear" x1="34.9145" y1="54.55" x2="53.8245" y2="54.55" gradientUnits="userSpaceOnUse">
<stop stop-color="#218B89"/>
<stop offset="0.42" stop-color="#20898B"/>
<stop offset="0.74" stop-color="#198589"/>
<stop offset="1" stop-color="#1A7E7C"/>
</linearGradient>
<linearGradient id="paint13_linear" x1="25.4745" y1="49.8999" x2="34.9145" y2="49.8999" gradientUnits="userSpaceOnUse">
<stop stop-color="#218B89"/>
<stop offset="0.26" stop-color="#20898B"/>
<stop offset="0.41" stop-color="#198589"/>
<stop offset="0.63" stop-color="#1A7E7C"/>
<stop offset="0.82" stop-color="#157678"/>
<stop offset="1" stop-color="#157476"/>
</linearGradient>
<linearGradient id="paint14_linear" x1="10939.5" y1="-68503.5" x2="-5672.79" y2="-27807.2" gradientUnits="userSpaceOnUse">
<stop stop-color="#18757D"/>
<stop offset="0.27" stop-color="#187678"/>
<stop offset="0.54" stop-color="#157279"/>
<stop offset="0.81" stop-color="#0B646C"/>
<stop offset="0.94" stop-color="#07596E"/>
</linearGradient>
<linearGradient id="paint15_linear" x1="689744" y1="-3.8286e+06" x2="673821" y2="-3.79199e+06" gradientUnits="userSpaceOnUse">
<stop stop-color="#218B89"/>
<stop offset="0.41" stop-color="#20898B"/>
<stop offset="0.83" stop-color="#198589"/>
<stop offset="0.94" stop-color="#157476"/>
<stop offset="1" stop-color="#1A7E7C"/>
</linearGradient>
<linearGradient id="paint16_linear" x1="85.8745" y1="183.36" x2="85.8745" y2="37.63" gradientUnits="userSpaceOnUse">
<stop stop-color="#E6F6E5"/>
<stop offset="0.19" stop-color="#E2F5E4"/>
<stop offset="0.39" stop-color="#D6F1E1"/>
<stop offset="0.59" stop-color="#C1EBDB"/>
<stop offset="0.79" stop-color="#A5E3D3"/>
<stop offset="0.94" stop-color="#89DBCC"/>
</linearGradient>
<linearGradient id="paint17_linear" x1="9273.17" y1="-1.09864e+06" x2="9273.17" y2="-1.78857e+06" gradientUnits="userSpaceOnUse">
<stop stop-color="#E6F6E5"/>
<stop offset="0.19" stop-color="#E2F5E4"/>
<stop offset="0.39" stop-color="#D6F1E1"/>
<stop offset="0.59" stop-color="#C1EBDB"/>
<stop offset="0.79" stop-color="#A5E3D3"/>
<stop offset="0.94" stop-color="#89DBCC"/>
</linearGradient>
<linearGradient id="paint18_linear" x1="7039.41" y1="-708808" x2="7039.41" y2="-1.00707e+06" gradientUnits="userSpaceOnUse">
<stop stop-color="#E6F6E5"/>
<stop offset="0.19" stop-color="#E2F5E4"/>
<stop offset="0.39" stop-color="#D6F1E1"/>
<stop offset="0.59" stop-color="#C1EBDB"/>
<stop offset="0.79" stop-color="#A5E3D3"/>
<stop offset="0.94" stop-color="#89DBCC"/>
</linearGradient>
<linearGradient id="paint19_linear" x1="121.124" y1="130.07" x2="102.494" y2="97.0199" gradientUnits="userSpaceOnUse">
<stop stop-color="white"/>
<stop offset="0.1" stop-color="#F6FAFA"/>
<stop offset="0.25" stop-color="#DEEBEC"/>
<stop offset="0.45" stop-color="#B8D3D5"/>
<stop offset="0.67" stop-color="#82B3B5"/>
<stop offset="0.93" stop-color="#3E898D"/>
<stop offset="1" stop-color="#287C80"/>
</linearGradient>
<linearGradient id="paint20_linear" x1="85.4245" y1="125.37" x2="36.8944" y2="98.42" gradientUnits="userSpaceOnUse">
<stop stop-color="#E6F6E5"/>
<stop offset="0.18" stop-color="#E2F4E3"/>
<stop offset="0.36" stop-color="#D6EFDE"/>
<stop offset="0.55" stop-color="#C1E5D5"/>
<stop offset="0.73" stop-color="#A4D9C9"/>
<stop offset="0.92" stop-color="#80C8BA"/>
<stop offset="0.94" stop-color="#7BC6B8"/>
</linearGradient>
<linearGradient id="paint21_linear" x1="35.8645" y1="89.46" x2="136.124" y2="89.46" gradientUnits="userSpaceOnUse">
<stop offset="0.13" stop-color="#7BC6B8"/>
<stop offset="0.25" stop-color="#80C8BA"/>
<stop offset="0.4" stop-color="#A4D9C9"/>
<stop offset="0.57" stop-color="#C1E5D5"/>
<stop offset="0.78" stop-color="#D6EFDE"/>
<stop offset="0.91" stop-color="#E2F4E3"/>
<stop offset="1" stop-color="#E6F6E5"/>
</linearGradient>
<linearGradient id="paint22_linear" x1="42.4245" y1="89.39" x2="129.604" y2="89.39" gradientUnits="userSpaceOnUse">
<stop stop-color="#18757D"/>
<stop offset="0.27" stop-color="#187678"/>
<stop offset="0.54" stop-color="#157279"/>
<stop offset="0.81" stop-color="#0B646C"/>
<stop offset="0.94" stop-color="#07596E"/>
</linearGradient>
<linearGradient id="paint23_linear" x1="2564.5" y1="-74506.5" x2="6935.98" y2="-74506.5" gradientUnits="userSpaceOnUse">
<stop stop-color="#18757D"/>
<stop offset="0.27" stop-color="#187678"/>
<stop offset="0.54" stop-color="#157279"/>
<stop offset="0.81" stop-color="#0B646C"/>
<stop offset="0.94" stop-color="#07596E"/>
</linearGradient>
<clipPath id="clip0">
<rect width="209.69" height="140.01" fill="white" transform="translate(0.724487 17)"/>
</clipPath>
<clipPath id="clip1">
<rect width="191.74" height="150.32" fill="white" transform="translate(7.72449)"/>
</clipPath>
</defs>
</svg>
